<svg width="300" height="300" viewBox="0 0 300 300" fill="none" xmlns="http://www.w3.org/2000/svg">
<rect width="300" height="300" fill="url(#paint0_radial_343_8)"/>
<path opacity="0.18" d="M204.171 140.79C202.582 153.252 196.051 164.5 189.038 174.921C180.748 187.241 170.357 199.778 155.836 202.893C150.549 204.029 145.072 203.807 139.683 203.348C133.921 202.86 128.065 202.078 122.808 199.652C114.549 195.846 108.814 188.506 103.952 181.081C99.0893 173.656 92.5231 165.902 95.953 156.301C97.3085 152.512 100.316 149.606 102.873 146.5C110.556 137.17 114.491 125.372 120.824 115.096C127.157 104.82 137.507 95.3914 149.569 96.0308C155.488 96.3436 160.973 99.0491 166.653 100.737C171.353 102.133 176.301 102.871 181.037 104.114C184.368 104.99 187.594 106.109 190.55 107.89C192.522 109.078 194.321 110.532 195.895 112.212C202.757 119.497 205.463 130.643 204.171 140.79Z" fill="#68E1FD"/>
<path d="M112.123 182.7V147.515L187.323 142.255V177.437L148.022 195.698L112.123 182.7Z" fill="#68E1FD"/>
<path d="M187.323 142.255V177.437L148.022 195.695L147.95 195.671L112.12 182.7V147.515L147.95 145.01L187.323 142.255Z" fill="url(#paint1_linear_343_8)"/>
<path d="M187.323 142.255V177.437L148.022 195.695L147.95 195.671V145.01L187.323 142.255Z" fill="url(#paint2_linear_343_8)"/>
<path d="M112.123 147.515L151.301 130.42L187.323 142.255L148.022 160.513L112.123 147.515Z" fill="#68E1FD"/>
<path d="M195.895 112.212L195.851 112.245C192.726 114.39 189.247 115.982 185.825 117.625C179.659 120.581 174.004 123.569 168.044 126.911L168.014 126.93C167.493 128.576 165.951 129.655 164.392 130.363C162.834 131.071 161.143 131.548 159.752 132.558C158.865 133.197 158.132 134.028 157.609 134.989C157.449 135.343 157.239 135.673 156.986 135.969C156.639 136.262 156.233 136.477 155.796 136.6C153.6 137.39 151.199 138.186 148.936 137.544C147.962 137.215 147.039 136.753 146.192 136.172C145.72 135.923 145.312 135.569 144.998 135.137C144.789 134.755 144.667 134.332 144.639 133.897C144.219 130.173 146.027 126.475 148.615 123.764C151.202 121.053 154.509 119.159 157.763 117.304C159.385 116.38 161.388 116.028 163.212 115.631C170.226 114.102 175.815 109.018 181.037 104.114C184.33 104.979 187.532 106.087 190.462 107.838L190.55 107.89C192.522 109.078 194.321 110.532 195.895 112.212Z" fill="#F3BD8F"/>
<path d="M154.462 126.274C152.816 126.121 151.244 126.859 149.797 127.668C148.7 128.294 147.602 128.985 146.733 129.932C145.863 130.879 145.278 132.113 145.33 133.389C145.322 133.828 145.47 134.256 145.747 134.597C146.373 135.272 147.553 135.005 148.203 134.358C148.854 133.71 149.164 132.802 149.619 132.004C150.146 131.081 150.878 130.292 151.759 129.699C152.487 129.208 152.613 129.238 153.071 128.552C153.17 128.423 154.514 126.28 154.462 126.274Z" fill="url(#paint3_linear_343_8)"/>
<path d="M157.329 127.929C158.918 127.542 160.487 126.999 162.123 126.949C162.597 126.933 163.149 127.001 163.404 127.405C163.501 127.572 163.553 127.761 163.555 127.954C163.61 129.361 162.339 130.423 161.217 131.268C159.361 132.68 157.583 134.192 155.891 135.798C154.193 134.508 152.79 132.87 151.775 130.994C151.526 130.53 150.716 129.551 150.708 129.04C150.708 128.346 151.806 128.642 152.354 128.62C154.031 128.555 155.698 128.323 157.329 127.929Z" fill="url(#paint4_linear_343_8)"/>
<path d="M140.262 146.788L155.812 139.955L159.162 140.858L143.826 147.691L140.262 146.788Z" fill="url(#paint5_linear_343_8)"/>
<path d="M143.311 146.659L146.532 127.97L158.649 129.002L157.359 140.858L143.311 146.659Z" fill="white"/>
<path d="M152.459 130.796C152.436 131.086 152.483 131.376 152.595 131.644C152.707 131.911 152.882 132.148 153.103 132.336C153.765 132.835 154.75 132.64 155.425 132.171C156.1 131.702 156.605 131.013 157.205 130.437C159.228 128.5 162.381 127.945 164.109 125.739C164.251 125.591 164.334 125.396 164.342 125.19C164.32 124.916 164.068 124.721 163.818 124.584C161.681 123.377 158.446 123.396 156.27 124.584C154.478 125.575 152.53 128.832 152.459 130.796Z" fill="#F3BD8F"/>
<path d="M195.895 112.212L195.851 112.245C192.725 114.39 189.246 115.982 185.824 117.625C179.659 120.581 174.004 123.569 168.044 126.911C167.841 125.479 168.947 124.126 170.011 123.069C173.777 119.373 177.983 116.153 182.534 113.482C184.73 112.201 187.024 111.037 188.955 109.366C189.504 108.9 189.907 108.238 190.462 107.816L190.549 107.868C192.523 109.062 194.322 110.524 195.895 112.212Z" fill="url(#paint6_linear_343_8)"/>
<defs>
<radialGradient id="paint0_radial_343_8" cx="0" cy="0" r="1" gradientUnits="userSpaceOnUse" gradientTransform="translate(150 150) rotate(-135) scale(212.132 235.333)">
<stop stop-color="#4951F2"/>
<stop offset="1" stop-color="#21A1CF"/>
</radialGradient>
<linearGradient id="paint1_linear_343_8" x1="167.042" y1="141.07" x2="84.0416" y2="243.659" gradientUnits="userSpaceOnUse">
<stop offset="0.01"/>
<stop offset="0.13" stop-opacity="0.69"/>
<stop offset="1" stop-opacity="0"/>
</linearGradient>
<linearGradient id="paint2_linear_343_8" x1="178.432" y1="147.88" x2="108.558" y2="234.248" gradientUnits="userSpaceOnUse">
<stop offset="0.01"/>
<stop offset="0.13" stop-opacity="0.69"/>
<stop offset="1" stop-opacity="0"/>
</linearGradient>
<linearGradient id="paint3_linear_343_8" x1="142.713" y1="118.783" x2="153.28" y2="135.453" gradientUnits="userSpaceOnUse">
<stop offset="0.01"/>
<stop offset="0.13" stop-opacity="0.69"/>
<stop offset="1" stop-opacity="0"/>
</linearGradient>
<linearGradient id="paint4_linear_343_8" x1="155.707" y1="123.72" x2="158.8" y2="134.029" gradientUnits="userSpaceOnUse">
<stop offset="0.01"/>
<stop offset="0.13" stop-opacity="0.69"/>
<stop offset="1" stop-opacity="0"/>
</linearGradient>
<linearGradient id="paint5_linear_343_8" x1="147.846" y1="129.24" x2="154.031" y2="177.569" gradientUnits="userSpaceOnUse">
<stop offset="0.01"/>
<stop offset="0.13" stop-opacity="0.69"/>
<stop offset="1" stop-opacity="0"/>
</linearGradient>
<linearGradient id="paint6_linear_343_8" x1="187.688" y1="136.194" x2="177.055" y2="105.261" gradientUnits="userSpaceOnUse">
<stop offset="0.01"/>
<stop offset="0.13" stop-opacity="0.69"/>
<stop offset="1" stop-opacity="0"/>
</linearGradient>
</defs>
</svg>
